<?xml version="1.0" encoding="UTF-8" standalone="no"?>
<svg
   xmlns:dc="http://purl.org/dc/elements/1.1/"
   xmlns:cc="http://creativecommons.org/ns#"
   xmlns:rdf="http://www.w3.org/1999/02/22-rdf-syntax-ns#"
   xmlns:svg="http://www.w3.org/2000/svg"
   xmlns="http://www.w3.org/2000/svg"
   viewBox="0 0 1133.8533 1133.8533"
   height="1133.8533"
   width="1133.8533"
   xml:space="preserve"
   id="svg2"
   version="1.1"><metadata
     id="metadata8"><rdf:RDF><cc:Work
         rdf:about=""><dc:format>image/svg+xml</dc:format><dc:type
           rdf:resource="http://purl.org/dc/dcmitype/StillImage" /></cc:Work></rdf:RDF></metadata><defs
     id="defs6"><clipPath
       id="clipPath18"
       clipPathUnits="userSpaceOnUse"><path
         id="path16"
         d="M 0,850.39 H 850.39 V 0 H 0 Z" /></clipPath></defs><g
     transform="matrix(1.3333333,0,0,-1.3333333,0,1133.8533)"
     id="g10"><g
       id="g12"><g
         clip-path="url(#clipPath18)"
         id="g14"><g
           transform="translate(779.0449,611.7061)"
           id="g20"><path
             id="path22"
             style="fill:#ffffff;fill-opacity:1;fill-rule:nonzero;stroke:none"
             d="m 0,0 -1.172,8.224 c 4.714,6.911 4.35,14.518 3.874,17.87 L 0.285,42.972 -0.046,43.99 c -2.276,7.036 -10.367,23.011 -36.048,19.353 l -24.443,-3.493 -2.587,2.938 c -11.791,13.501 -24.695,26.14 -38.474,37.667 26.178,6.493 46.238,11.621 48.378,12.171 l 10.81,2.757 -12.743,89.26 -11.17,-0.369 c -5.898,-0.194 -144.86,-4.875 -180.667,-9.991 -2.889,-0.413 -5.154,-0.836 -6.916,-1.287 -12.322,-3.137 -21.708,-8.662 -28.823,-14.432 l -6.042,0.588 c -27.287,2.665 -55.016,2.033 -82.414,-1.887 -44.4,-6.345 -86.396,-20.942 -124.811,-43.394 l 2.437,-7.591 c -5.252,-0.492 -10.512,-0.985 -15.727,-1.461 -123.876,-11.427 -144.793,-11.021 -148.277,-10.574 -7.388,1.813 -13.621,2.321 -19.072,1.539 -9.038,-1.291 -14.1,-5.926 -16.761,-9.601 -1.577,-2.165 -2.769,-4.611 -3.576,-7.309 l -1.085,-0.149 -0.103,-6.486 c -0.095,-1.341 -0.116,-2.723 -0.07,-4.151 -0.067,-4.42 0.625,-11.158 2.131,-20.594 1.196,-9.473 2.421,-16.141 3.725,-20.371 0.364,-1.432 0.791,-2.781 1.274,-4.081 l 1.892,-6.08 1.072,0.154 c 1.527,-2.367 3.352,-4.375 5.471,-6.01 3.576,-2.777 9.743,-5.811 18.773,-4.511 5.447,0.766 11.299,3.001 17.88,6.817 2.086,0.914 11.141,3.836 50.157,12.18 -7.847,-10.273 -15.131,-20.992 -21.774,-32.059 l -2.893,-4.809 -23.947,-3.414 0.336,-2.38 c -4.383,0.885 -9.677,1.043 -16.112,0.12 l -83.192,-11.891 17.386,-121.653 12.334,1.767 c 9.8,1.399 17.113,4.23 22.332,8.654 6.614,5.604 9.561,13.584 8.294,22.445 l -2.049,14.349 23.053,-23.889 -0.762,-5.082 c -4.937,-32.94 -5.02,-66.526 -0.264,-99.789 11.981,-83.817 53.791,-159.315 118.139,-213.785 -72.398,-32.514 -77.878,-81.632 -78.085,-83.772 l -0.136,-1.469 2.321,-16.261 3.589,0.264 c 9.825,-17.916 36.37,-48.902 102.867,-51.17 17.706,-0.605 33.342,0.116 47.794,2.189 26.566,3.8 48.688,12.296 67.623,25.975 17.49,12.643 30.626,28.449 41.221,42.873 l 4.214,0.591 1.568,-10.975 14.734,5.926 c 2.678,1.055 7.668,3.254 12.346,6.262 0.529,-0.521 1.097,-1.031 1.738,-1.506 3.141,-2.347 7.098,-3.316 11.183,-2.724 6.493,0.923 12.726,5.865 14.742,13.807 2.234,0.931 5.289,1.9 9.158,2.446 0.605,0.096 1.217,0.174 1.901,0.236 42.422,4.374 107.978,10.864 164.63,15.884 97.184,8.63 114.463,8.183 117.489,7.794 7.395,-1.814 13.637,-2.322 19.067,-1.557 9.056,1.3 14.109,5.944 16.774,9.602 1.577,2.173 2.757,4.611 3.576,7.309 l 1.093,0.141 0.099,6.597 c 0.087,1.287 0.12,2.611 0.067,3.977 v 0.05 c 0.065,4.424 -0.618,11.162 -2.12,20.619 -1.205,9.507 -2.429,16.166 -3.742,20.396 v 0.041 c -0.368,1.399 -0.773,2.711 -1.249,3.977 l -1.908,6.121 -1.063,-0.157 c -1.537,2.363 -3.37,4.37 -5.485,6.005 -3.58,2.781 -9.738,5.823 -18.781,4.528 -5.446,-0.774 -11.286,-3.005 -17.875,-6.825 -2.132,-0.931 -12.288,-4.237 -59.829,-14.237 32.625,33.722 58.281,74.021 74.898,117.888 10.07,26.579 16.807,54.362 19.994,82.542 3.303,29.033 2.873,58.567 -1.312,87.774 C 13.579,-82.808 4.655,-51.916 -8.36,-22.78 1.014,-14.945 0.604,-4.181 0,0" /></g><g
           transform="translate(92.1299,680.5161)"
           id="g24"><path
             id="path26"
             style="fill:#231f20;fill-opacity:1;fill-rule:nonzero;stroke:none"
             d="m 0,0 c 0.89,-7.052 2.036,-14.395 3.298,-18.475 h 0.021 c 3.315,-14.258 13.579,-15.119 28.4,-6.478 14.895,8.717 271.677,56.175 310.159,62.868 38.49,6.688 50.815,-1.167 61.001,-8.609 8.12,-5.935 22.01,-15.988 44.007,-15.234 22.017,0.749 180.559,41.349 180.559,41.349 l -0.505,3.514 c 0,0 -150.997,-20.172 -159.208,-19.179 -2.818,0.352 -3.923,2.628 -4.035,4.019 -0.331,3.439 3.229,4.284 3.229,4.284 l 157.763,26.691 -0.667,4.68 c 0,0 -149.427,-17.283 -160.06,-17.494 -0.729,-0.009 -1.328,0.045 -1.816,0.165 -0.977,0.576 -1.992,1.437 -2.414,2.5 -0.09,0.344 -0.149,0.72 -0.219,1.072 -0.021,0.36 -0.075,0.733 -0.082,1.084 0.094,1.143 0.843,2.252 1.613,3.088 0.431,0.252 0.994,0.472 1.681,0.666 10.28,2.781 158.562,28.031 158.562,28.031 l -0.662,4.686 L 461.69,84.669 c 0,0 -3.65,-0.198 -4.296,3.196 -0.282,1.362 0.136,3.861 2.752,4.979 7.599,3.278 158.203,26.198 158.203,26.198 l -0.497,3.518 c 0,0 -163.571,-5.451 -184.914,-10.89 C 411.607,106.228 401.087,92.695 394.953,84.732 387.255,74.716 377.629,63.724 338.808,59.361 299.999,55.016 40.199,28.631 23.458,32.824 6.808,36.983 -2.794,33.271 -1.979,18.637 H -2.012 C -2.074,14.39 -1.122,7.027 0,0" /></g><g
           transform="translate(92.1299,680.5161)"
           id="g28"><path
             id="path30"
             style="fill:none;stroke:#ffffff;stroke-width:0.51499999;stroke-linecap:butt;stroke-linejoin:miter;stroke-miterlimit:10;stroke-dasharray:none;stroke-opacity:1"
             d="m 0,0 c 0.89,-7.052 2.036,-14.395 3.298,-18.475 h 0.021 c 3.315,-14.258 13.579,-15.119 28.4,-6.478 14.895,8.717 271.677,56.175 310.159,62.868 38.49,6.688 50.815,-1.167 61.001,-8.609 8.12,-5.935 22.01,-15.988 44.007,-15.234 22.017,0.749 180.559,41.349 180.559,41.349 l -0.505,3.514 c 0,0 -150.997,-20.172 -159.208,-19.179 -2.818,0.352 -3.923,2.628 -4.035,4.019 -0.331,3.439 3.229,4.284 3.229,4.284 l 157.763,26.691 -0.667,4.68 c 0,0 -149.427,-17.283 -160.06,-17.494 -0.729,-0.009 -1.328,0.045 -1.816,0.165 -0.977,0.576 -1.992,1.437 -2.414,2.5 -0.09,0.344 -0.149,0.72 -0.219,1.072 -0.021,0.36 -0.075,0.733 -0.082,1.084 0.094,1.143 0.843,2.252 1.613,3.088 0.431,0.252 0.994,0.472 1.681,0.666 10.28,2.781 158.562,28.031 158.562,28.031 l -0.662,4.686 L 461.69,84.669 c 0,0 -3.65,-0.198 -4.296,3.196 -0.282,1.362 0.136,3.861 2.752,4.979 7.599,3.278 158.203,26.198 158.203,26.198 l -0.497,3.518 c 0,0 -163.571,-5.451 -184.914,-10.89 C 411.607,106.228 401.087,92.695 394.953,84.732 387.255,74.716 377.629,63.724 338.808,59.361 299.999,55.016 40.199,28.631 23.458,32.824 6.808,36.983 -2.794,33.271 -1.979,18.637 H -2.012 C -2.074,14.39 -1.122,7.027 0,0 Z" /></g><g
           transform="translate(200.4937,79.542)"
           id="g32"><path
             id="path34"
             style="fill:#231f20;fill-opacity:1;fill-rule:nonzero;stroke:none"
             d="m 0,0 c 0.157,0.695 -0.343,-9.146 60.007,-11.063 16.357,-0.538 31.293,0.141 44.446,2.024 C 141.846,-3.7 166.504,4.064 187,26.852 166.256,2.798 136.859,-17.888 98.34,-20.445 3.82,-26.761 0,0 0,0 m 271.475,53.547 v 0 c -0.178,-0.013 -0.427,-0.046 -0.604,-0.07 0.173,0.024 0.426,0.057 0.604,0.07 M 61.406,-34.062 c 84.761,-2.868 117.767,26.277 149.234,70.167 l 21.77,3.113 1.084,-7.607 c 0,0 11.796,4.747 15.297,9.408 3.489,4.656 9.001,-4.834 10.868,-6.225 1.871,-1.407 7.702,0.546 6.539,8.699 0,0 7.661,6.076 21.72,7.484 79.488,8.207 271.831,27.017 286.159,23.441 16.663,-4.172 26.256,-0.435 25.449,14.167 l 0.024,0.008 c 0.075,4.259 -0.897,11.626 -2.023,18.653 -0.882,7.057 -2.02,14.374 -3.278,18.463 l -0.021,-0.017 c -3.336,14.275 -13.592,15.144 -28.408,6.498 -12.751,-7.458 -202.747,-43.299 -281.317,-57.677 -13.856,-2.57 -22.816,0.526 -22.816,0.526 -1.167,8.161 -7.305,8.401 -8.716,6.519 -1.399,-1.868 -4.805,-7.07 -9.462,-3.58 -4.668,3.509 -16.782,0.951 -16.782,0.951 l 1.084,-7.607 -21.753,-3.116 C 163.554,101.522 121.136,129.546 42.6,97.554 -30.825,67.635 -35.25,20.95 -35.25,20.95 l 0.468,-3.278 0.555,0.042 c 4.229,-11.415 23.665,-49.338 95.633,-51.776" /></g><g
           transform="translate(200.4937,79.542)"
           id="g36"><path
             id="path38"
             style="fill:none;stroke:#ffffff;stroke-width:0.51499999;stroke-linecap:butt;stroke-linejoin:miter;stroke-miterlimit:10;stroke-dasharray:none;stroke-opacity:1"
             d="m 0,0 c 0.157,0.695 -0.343,-9.146 60.007,-11.063 16.357,-0.538 31.293,0.141 44.446,2.024 C 141.846,-3.7 166.504,4.064 187,26.852 166.256,2.798 136.859,-17.888 98.34,-20.445 3.82,-26.761 0,0 0,0 Z m 271.475,53.547 v 0 c -0.178,-0.013 -0.427,-0.046 -0.604,-0.07 0.173,0.024 0.426,0.057 0.604,0.07 z M 61.406,-34.062 c 84.761,-2.868 117.767,26.277 149.234,70.167 l 21.77,3.113 1.084,-7.607 c 0,0 11.796,4.747 15.297,9.408 3.489,4.656 9.001,-4.834 10.868,-6.225 1.871,-1.407 7.702,0.546 6.539,8.699 0,0 7.661,6.076 21.72,7.484 79.488,8.207 271.831,27.017 286.159,23.441 16.663,-4.172 26.256,-0.435 25.449,14.167 l 0.024,0.008 c 0.075,4.259 -0.897,11.626 -2.023,18.653 -0.882,7.057 -2.02,14.374 -3.278,18.463 l -0.021,-0.017 c -3.336,14.275 -13.592,15.144 -28.408,6.498 -12.751,-7.458 -202.747,-43.299 -281.317,-57.677 -13.856,-2.57 -22.816,0.526 -22.816,0.526 -1.167,8.161 -7.305,8.401 -8.716,6.519 -1.399,-1.868 -4.805,-7.07 -9.462,-3.58 -4.668,3.509 -16.782,0.951 -16.782,0.951 l 1.084,-7.607 -21.753,-3.116 C 163.554,101.522 121.136,129.546 42.6,97.554 -30.825,67.635 -35.25,20.95 -35.25,20.95 l 0.468,-3.278 0.555,0.042 c 4.229,-11.415 23.665,-49.338 95.633,-51.776 z" /></g><g
           transform="translate(119.6563,563.73)"
           id="g40"><path
             id="path42"
             style="fill:#231f20;fill-opacity:1;fill-rule:nonzero;stroke:none"
             d="m 0,0 c 1.047,0.166 1.486,0.853 1.3,2.111 l -2.248,15.743 c -0.177,1.267 -0.79,1.825 -1.841,1.668 L -48.452,13 l 9.275,-64.875 c 1.321,-9.233 -5.372,-14.908 -20.069,-17.001 l -13.86,96.99 70.859,10.132 C 11.39,40.191 18.881,36.549 20.201,27.315 L 24.249,-1.031 C 25.573,-10.264 19.398,-15.86 5.766,-17.813 l -4.789,-0.683 35.386,-36.719 -25.631,-3.654 -51.229,53.087 z" /></g><g
           transform="translate(119.6563,563.73)"
           id="g44"><path
             id="path46"
             style="fill:none;stroke:#ffffff;stroke-width:0.51499999;stroke-linecap:butt;stroke-linejoin:miter;stroke-miterlimit:10;stroke-dasharray:none;stroke-opacity:1"
             d="m 0,0 c 1.047,0.166 1.486,0.853 1.3,2.111 l -2.248,15.743 c -0.177,1.267 -0.79,1.825 -1.841,1.668 L -48.452,13 l 9.275,-64.875 c 1.321,-9.233 -5.372,-14.908 -20.069,-17.001 l -13.86,96.99 70.859,10.132 C 11.39,40.191 18.881,36.549 20.201,27.315 L 24.249,-1.031 C 25.573,-10.264 19.398,-15.86 5.766,-17.813 l -4.789,-0.683 35.386,-36.719 -25.631,-3.654 -51.229,53.087 z" /></g><g
           transform="translate(149.5669,577.6484)"
           id="g48"><path
             id="path50"
             style="fill:#231f20;fill-opacity:1;fill-rule:nonzero;stroke:none"
             d="m 0,0 22.039,3.158 7.834,-54.801 c 1.32,-9.225 -5.368,-14.916 -20.06,-17.002 z M 17.987,31.496 21.049,10.073 -0.989,6.932 -4.048,28.333 Z" /></g><g
           transform="translate(149.5669,577.6484)"
           id="g52"><path
             id="path54"
             style="fill:none;stroke:#ffffff;stroke-width:0.51499999;stroke-linecap:butt;stroke-linejoin:miter;stroke-miterlimit:10;stroke-dasharray:none;stroke-opacity:1"
             d="m 0,0 22.039,3.158 7.834,-54.801 c 1.32,-9.225 -5.368,-14.916 -20.06,-17.002 z M 17.987,31.496 21.049,10.073 -0.989,6.932 -4.048,28.333 Z" /></g><g
           transform="translate(260.4102,553.6479)"
           id="g56"><path
             id="path58"
             style="fill:#231f20;fill-opacity:1;fill-rule:nonzero;stroke:none"
             d="m 0,0 2.243,-15.744 c 1.328,-9.233 -4.838,-14.845 -18.484,-16.795 l -37.782,-5.392 c -13.654,-1.962 -21.128,1.697 -22.453,10.938 l -0.632,4.4 55.106,7.872 c 1.043,0.157 1.494,0.869 1.308,2.127 l -0.451,3.141 c -0.182,1.266 -0.803,1.813 -1.846,1.668 l -34.633,-4.942 c -13.653,-1.953 -21.132,1.689 -22.448,10.918 l -2.251,15.748 c -1.325,9.229 4.829,14.829 18.483,16.783 l 31.487,4.494 c 13.65,1.946 21.133,-1.696 22.445,-10.93 l 0.637,-4.4 -48.812,-6.973 c -1.051,-0.158 -1.486,-0.861 -1.304,-2.127 l 0.451,-3.15 c 0.178,-1.259 0.795,-1.821 1.842,-1.664 l 34.637,4.954 C -8.808,12.875 -1.325,9.233 0,0" /></g><g
           transform="translate(260.4102,553.6479)"
           id="g60"><path
             id="path62"
             style="fill:none;stroke:#ffffff;stroke-width:0.51499999;stroke-linecap:butt;stroke-linejoin:miter;stroke-miterlimit:10;stroke-dasharray:none;stroke-opacity:1"
             d="m 0,0 2.243,-15.744 c 1.328,-9.233 -4.838,-14.845 -18.484,-16.795 l -37.782,-5.392 c -13.654,-1.962 -21.128,1.697 -22.453,10.938 l -0.632,4.4 55.106,7.872 c 1.043,0.157 1.494,0.869 1.308,2.127 l -0.451,3.141 c -0.182,1.266 -0.803,1.813 -1.846,1.668 l -34.633,-4.942 c -13.653,-1.953 -21.132,1.689 -22.448,10.918 l -2.251,15.748 c -1.325,9.229 4.829,14.829 18.483,16.783 l 31.487,4.494 c 13.65,1.946 21.133,-1.696 22.445,-10.93 l 0.637,-4.4 -48.812,-6.973 c -1.051,-0.158 -1.486,-0.861 -1.304,-2.127 l 0.451,-3.15 c 0.178,-1.259 0.795,-1.821 1.842,-1.664 l 34.637,4.954 C -8.808,12.875 -1.325,9.233 0,0 Z" /></g><g
           transform="translate(251.665,573.6045)"
           id="g64"><path
             id="path66"
             style="fill:#231f20;fill-opacity:1;fill-rule:nonzero;stroke:none"
             d="m 0,0 -0.633,4.408 c -1.317,9.225 4.316,14.746 16.919,16.551 l -4.052,28.354 c 14.684,2.086 22.704,-1.469 24.017,-10.711 l 2.077,-14.494 18.889,2.707 0.625,-4.412 C 59.167,13.174 53.53,7.653 40.936,5.856 l 4.585,-32.128 c 12.599,1.804 19.552,-1.925 20.872,-11.15 l 0.633,-4.416 -20.47,-2.93 c -13.649,-1.95 -21.119,1.701 -22.436,10.934 L 18.893,2.703 Z" /></g><g
           transform="translate(251.665,573.6045)"
           id="g68"><path
             id="path70"
             style="fill:none;stroke:#ffffff;stroke-width:0.51499999;stroke-linecap:butt;stroke-linejoin:miter;stroke-miterlimit:10;stroke-dasharray:none;stroke-opacity:1"
             d="m 0,0 -0.633,4.408 c -1.317,9.225 4.316,14.746 16.919,16.551 l -4.052,28.354 c 14.684,2.086 22.704,-1.469 24.017,-10.711 l 2.077,-14.494 18.889,2.707 0.625,-4.412 C 59.167,13.174 53.53,7.653 40.936,5.856 l 4.585,-32.128 c 12.599,1.804 19.552,-1.925 20.872,-11.15 l 0.633,-4.416 -20.47,-2.93 c -13.649,-1.95 -21.119,1.701 -22.436,10.934 L 18.893,2.703 Z" /></g><g
           transform="translate(373.2104,560.1289)"
           id="g72"><path
             id="path74"
             style="fill:#231f20;fill-opacity:1;fill-rule:nonzero;stroke:none"
             d="m 0,0 -4.052,28.346 c -0.182,1.25 -0.794,1.813 -1.837,1.664 l -31.5,-4.503 c -1.043,-0.149 -1.482,-0.861 -1.304,-2.127 l 4.052,-28.33 c 0.182,-1.258 0.795,-1.821 1.846,-1.672 L -1.304,-2.11 C -0.256,-1.966 0.178,-1.266 0,0 M 22.945,-3.145 C 24.27,-12.37 17.056,-18.14 1.308,-20.383 l -34.641,-4.954 c -13.641,-1.954 -21.132,1.705 -22.449,10.935 l -5.852,40.94 c -1.316,9.225 4.842,14.82 18.492,16.778 L -5.36,48.709 C 8.29,50.662 15.781,47.02 17.101,37.787 Z" /></g><g
           transform="translate(373.2104,560.1289)"
           id="g76"><path
             id="path78"
             style="fill:none;stroke:#ffffff;stroke-width:0.51499999;stroke-linecap:butt;stroke-linejoin:miter;stroke-miterlimit:10;stroke-dasharray:none;stroke-opacity:1"
             d="m 0,0 -4.052,28.346 c -0.182,1.25 -0.794,1.813 -1.837,1.664 l -31.5,-4.503 c -1.043,-0.149 -1.482,-0.861 -1.304,-2.127 l 4.052,-28.33 c 0.182,-1.258 0.795,-1.821 1.846,-1.672 L -1.304,-2.11 C -0.256,-1.966 0.178,-1.266 0,0 Z M 22.945,-3.145 C 24.27,-12.37 17.056,-18.14 1.308,-20.383 l -34.641,-4.954 c -13.641,-1.954 -21.132,1.705 -22.449,10.935 l -5.852,40.94 c -1.316,9.225 4.842,14.82 18.492,16.778 L -5.36,48.709 C 8.29,50.662 15.781,47.02 17.101,37.787 Z" /></g><g
           transform="translate(448.0596,585.603)"
           id="g80"><path
             id="path82"
             style="fill:#231f20;fill-opacity:1;fill-rule:nonzero;stroke:none"
             d="m 0,0 -1.983,13.86 c -0.178,1.259 -0.778,1.813 -1.837,1.668 l -26.774,-3.832 7.206,-50.385 c -14.701,-2.11 -22.705,1.474 -24.03,10.711 l -7.826,54.784 22.047,3.158 0.141,-1.014 c 0.244,0.724 3.865,1.585 10.872,2.587 l 18.906,2.703 c 13.645,1.949 21.12,-1.701 22.435,-10.935 L 20.056,17.01 C 21.38,7.772 14.7,2.094 0,0" /></g><g
           transform="translate(448.0596,585.603)"
           id="g84"><path
             id="path86"
             style="fill:none;stroke:#ffffff;stroke-width:0.51499999;stroke-linecap:butt;stroke-linejoin:miter;stroke-miterlimit:10;stroke-dasharray:none;stroke-opacity:1"
             d="m 0,0 -1.983,13.86 c -0.178,1.259 -0.778,1.813 -1.837,1.668 l -26.774,-3.832 7.206,-50.385 c -14.701,-2.11 -22.705,1.474 -24.03,10.711 l -7.826,54.784 22.047,3.158 0.141,-1.014 c 0.244,0.724 3.865,1.585 10.872,2.587 l 18.906,2.703 c 13.645,1.949 21.12,-1.701 22.435,-10.935 L 20.056,17.01 C 21.38,7.772 14.7,2.094 0,0 Z" /></g><g
           transform="translate(524.5215,585.4248)"
           id="g88"><path
             id="path90"
             style="fill:#231f20;fill-opacity:1;fill-rule:nonzero;stroke:none"
             d="m 0,0 c -0.137,0.952 -3.873,0.923 -11.236,-0.124 l -22.031,-3.158 c -1.051,-0.149 -1.477,-0.852 -1.307,-2.111 l 0.724,-5.053 34.628,4.958 z m -2.822,19.709 -0.716,5.041 c -0.183,1.25 -0.803,1.812 -1.838,1.664 l -48.812,-6.982 -0.641,4.411 c -1.313,9.225 4.858,14.829 18.5,16.783 l 31.483,4.503 C 8.799,47.07 16.286,43.424 17.606,34.198 l 7.831,-54.804 -22.047,-3.15 -0.145,1.006 c -0.244,-0.712 -3.857,-1.577 -10.872,-2.587 l -25.181,-3.597 c -13.666,-1.953 -21.128,1.697 -22.456,10.939 l -2.248,15.744 c -1.311,9.241 4.83,14.837 18.485,16.774 z" /></g><g
           transform="translate(524.5215,585.4248)"
           id="g92"><path
             id="path94"
             style="fill:none;stroke:#ffffff;stroke-width:0.51499999;stroke-linecap:butt;stroke-linejoin:miter;stroke-miterlimit:10;stroke-dasharray:none;stroke-opacity:1"
             d="m 0,0 c -0.137,0.952 -3.873,0.923 -11.236,-0.124 l -22.031,-3.158 c -1.051,-0.149 -1.477,-0.852 -1.307,-2.111 l 0.724,-5.053 34.628,4.958 z m -2.822,19.709 -0.716,5.041 c -0.183,1.25 -0.803,1.812 -1.838,1.664 l -48.812,-6.982 -0.641,4.411 c -1.313,9.225 4.858,14.829 18.5,16.783 l 31.483,4.503 C 8.799,47.07 16.286,43.424 17.606,34.198 l 7.831,-54.804 -22.047,-3.15 -0.145,1.006 c -0.244,-0.712 -3.857,-1.577 -10.872,-2.587 l -25.181,-3.597 c -13.666,-1.953 -21.128,1.697 -22.456,10.939 l -2.248,15.744 c -1.311,9.241 4.83,14.837 18.485,16.774 z" /></g><g
           transform="translate(611.1367,573.5591)"
           id="g96"><path
             id="path98"
             style="fill:#231f20;fill-opacity:1;fill-rule:nonzero;stroke:none"
             d="m 0,0 -6.928,48.506 c -0.178,1.258 -0.799,1.813 -1.838,1.663 l -33.072,-4.73 7.193,-50.389 C -49.329,-7.052 -57.346,-3.48 -58.67,5.761 l -7.822,54.788 22.043,3.162 0.148,-1.001 c 0.24,0.712 3.858,1.564 10.868,2.57 l 25.197,3.605 C 5.405,70.83 13.198,65.094 15.115,51.664 L 20.061,17.019 C 21.385,7.785 14.692,2.103 0,0" /></g><g
           transform="translate(611.1367,573.5591)"
           id="g100"><path
             id="path102"
             style="fill:none;stroke:#ffffff;stroke-width:0.51499999;stroke-linecap:butt;stroke-linejoin:miter;stroke-miterlimit:10;stroke-dasharray:none;stroke-opacity:1"
             d="m 0,0 -6.928,48.506 c -0.178,1.258 -0.799,1.813 -1.838,1.663 l -33.072,-4.73 7.193,-50.389 C -49.329,-7.052 -57.346,-3.48 -58.67,5.761 l -7.822,54.788 22.043,3.162 0.148,-1.001 c 0.24,0.712 3.858,1.564 10.868,2.57 l 25.197,3.605 C 5.405,70.83 13.198,65.094 15.115,51.664 L 20.061,17.019 C 21.385,7.785 14.692,2.103 0,0 Z" /></g><g
           transform="translate(625.3701,627.019)"
           id="g104"><path
             id="path106"
             style="fill:#231f20;fill-opacity:1;fill-rule:nonzero;stroke:none"
             d="m 0,0 -0.638,4.404 c -1.311,9.233 4.326,14.758 16.919,16.554 l -4.052,28.346 c 14.706,2.095 22.718,-1.461 24.026,-10.711 l 2.078,-14.485 18.889,2.707 0.629,-4.408 C 59.171,13.166 53.534,7.648 40.936,5.848 l 4.593,-32.129 c 12.591,1.805 19.552,-1.916 20.868,-11.145 l 0.642,-4.412 -20.482,-2.931 c -13.634,-1.953 -21.12,1.706 -22.445,10.935 L 18.893,2.698 Z" /></g><g
           transform="translate(625.3701,627.019)"
           id="g108"><path
             id="path110"
             style="fill:none;stroke:#ffffff;stroke-width:0.51499999;stroke-linecap:butt;stroke-linejoin:miter;stroke-miterlimit:10;stroke-dasharray:none;stroke-opacity:1"
             d="m 0,0 -0.638,4.404 c -1.311,9.233 4.326,14.758 16.919,16.554 l -4.052,28.346 c 14.706,2.095 22.718,-1.461 24.026,-10.711 l 2.078,-14.485 18.889,2.707 0.629,-4.408 C 59.171,13.166 53.534,7.648 40.936,5.848 l 4.593,-32.129 c 12.591,1.805 19.552,-1.916 20.868,-11.145 l 0.642,-4.412 -20.482,-2.931 c -13.634,-1.953 -21.12,1.706 -22.445,10.935 L 18.893,2.698 Z" /></g><g
           transform="translate(708.2266,636.9312)"
           id="g112"><path
             id="path114"
             style="fill:#231f20;fill-opacity:1;fill-rule:nonzero;stroke:none"
             d="m 0,0 c -0.285,-0.687 -0.409,-1.258 -0.331,-1.726 0.31,-2.259 4.351,-2.847 12.068,-1.734 l 22.048,3.15 c 1.059,0.148 1.482,0.852 1.291,2.11 L 34.625,4.942 C 34.459,6.2 33.863,6.771 32.857,6.622 L 1.316,2.119 C 0.253,1.962 -0.178,1.254 0,0 m 3.336,-23.301 0.716,-5.041 c 0.178,-1.266 0.795,-1.817 1.842,-1.651 l 48.825,6.973 0.616,-4.424 c 1.324,-9.233 -4.834,-14.829 -18.48,-16.786 l -31.5,-4.503 c -13.644,-1.945 -21.127,1.713 -22.443,10.946 l -5.856,40.933 c -1.321,9.229 4.841,14.829 18.483,16.782 l 37.795,5.393 c 12.043,1.73 19.53,-1.892 22.432,-10.856 l 2.267,-15.806 c 1.324,-9.242 -4.85,-14.841 -18.508,-16.795 z" /></g><g
           transform="translate(708.2266,636.9312)"
           id="g116"><path
             id="path118"
             style="fill:none;stroke:#ffffff;stroke-width:0.51499999;stroke-linecap:butt;stroke-linejoin:miter;stroke-miterlimit:10;stroke-dasharray:none;stroke-opacity:1"
             d="m 0,0 c -0.285,-0.687 -0.409,-1.258 -0.331,-1.726 0.31,-2.259 4.351,-2.847 12.068,-1.734 l 22.048,3.15 c 1.059,0.148 1.482,0.852 1.291,2.11 L 34.625,4.942 C 34.459,6.2 33.863,6.771 32.857,6.622 L 1.316,2.119 C 0.253,1.962 -0.178,1.254 0,0 Z m 3.336,-23.301 0.716,-5.041 c 0.178,-1.266 0.795,-1.817 1.842,-1.651 l 48.825,6.973 0.616,-4.424 c 1.324,-9.233 -4.834,-14.829 -18.48,-16.786 l -31.5,-4.503 c -13.644,-1.945 -21.127,1.713 -22.443,10.946 l -5.856,40.933 c -1.321,9.229 4.841,14.829 18.483,16.782 l 37.795,5.393 c 12.043,1.73 19.53,-1.892 22.432,-10.856 l 2.267,-15.806 c 1.324,-9.242 -4.85,-14.841 -18.508,-16.795 z" /></g><g
           transform="translate(383.0771,617.2725)"
           id="g120"><path
             id="path122"
             style="fill:#000000;fill-opacity:1;fill-rule:nonzero;stroke:none"
             d="M 0,0 -0.389,2.744 39.38,8.418 c 0.695,0.103 1.415,0.203 2.156,0.314 l 18.902,2.699 c 10.545,1.507 17.697,-0.041 22.564,-2.893 3.857,4.093 10.297,7.582 20.847,9.097 l 31.487,4.495 c 1.403,0.211 2.744,0.351 4.022,0.438 -29.011,9.826 -60.706,13.165 -93.104,8.53 C 13.96,26.483 -15.433,14.469 -40.497,-2.988 L -16.493,0.43 C -9.676,1.407 -4.288,1.101 0,0" /></g><g
           transform="translate(436.04,749.5581)"
           id="g124"><path
             id="path126"
             style="fill:#000000;fill-opacity:1;fill-rule:nonzero;stroke:none"
             d="m 0,0 c 31.111,4.449 37.936,13.314 43.962,21.153 1.605,2.065 3.526,4.59 5.922,7.292 -25.908,2.533 -52.525,2.033 -79.438,-1.82 C -73.346,20.379 -113.897,5.823 -149.858,-15.181 -87.07,-9.262 -24.629,-2.856 -6.101,-0.774 -4.002,-0.546 -1.949,-0.282 0,0" /></g><g
           transform="translate(179.5977,588.1938)"
           id="g128"><path
             id="path130"
             style="fill:#000000;fill-opacity:1;fill-rule:nonzero;stroke:none"
             d="m 0,0 c 3.795,2.255 8.898,4.056 15.71,5.033 l 31.483,4.503 c 9.664,1.374 16.477,0.194 21.282,-2.198 2.578,2.512 5.839,4.449 9.858,5.84 l -4.167,29.128 8.869,1.275 c 9.13,1.295 16.306,0.72 21.939,-1.792 6.779,-3.026 11.125,-8.886 12.214,-16.501 l 0.802,-5.638 9.404,1.346 c 31.905,30.026 73.064,50.869 119.737,57.536 46.668,6.668 92.003,-1.809 131.044,-21.695 l 16.509,2.363 c 0.712,0.099 1.432,0.203 2.161,0.302 l 25.187,3.605 c 7.769,1.109 14.415,0.203 19.8,-2.707 0.091,0.104 0.19,0.207 0.29,0.29 2.595,2.55 5.864,4.495 9.92,5.91 l -4.163,29.12 8.856,1.267 c 9.143,1.307 16.299,0.72 21.936,-1.78 6.792,-3.034 11.129,-8.898 12.218,-16.522 l 0.798,-5.62 18.893,2.698 0.203,-1.452 c 3.278,1.398 7.268,2.532 12.114,3.219 l 0.907,0.125 c -14.436,16.525 -30.453,31.553 -47.765,44.88 -41.338,-10.115 -90.232,-21.629 -109.672,-24.406 -2.798,-0.398 -4.967,-0.625 -6.635,-0.671 -25.246,-0.869 -41.092,10.715 -49.598,16.94 -17.027,12.437 -33.573,10.069 -48.157,7.971 -1.946,-0.273 -3.965,-0.592 -6.04,-0.952 C 235.617,117.883 162.018,104.354 93.841,91.093 64.981,85.481 41.854,80.854 23.313,77.03 10.648,62.428 -0.704,46.759 -10.657,30.179 l 6.216,0.894 z" /></g><g
           transform="translate(714.8408,579.3496)"
           id="g132"><path
             id="path134"
             style="fill:#000000;fill-opacity:1;fill-rule:nonzero;stroke:none"
             d="m 0,0 c -4.859,-0.695 -8.978,-0.741 -12.52,-0.319 l 0.207,-1.44 -29.331,-4.197 c -26.471,-3.783 -31.599,11.705 -32.58,18.533 l -3.948,27.659 -0.567,-0.078 3.957,-27.672 c 0.777,-5.467 -0.299,-10.537 -3.075,-14.746 20.072,-27.916 33.908,-60.951 39.102,-97.346 17.221,-120.516 -66.497,-232.154 -186.987,-249.374 -120.503,-17.222 -232.149,66.501 -249.37,186.991 -4.714,32.948 -1.875,65.242 7.201,95.128 -0.488,-0.087 -0.981,-0.158 -1.489,-0.236 l -37.787,-5.393 c -11.539,-1.656 -19.026,0.352 -23.876,3.713 -0.774,-0.907 -1.635,-1.776 -2.575,-2.587 -2.16,-1.821 -4.747,-3.344 -7.805,-4.602 l 1.213,-1.246 -13.964,-1.991 -8.87,-1.275 -24.654,-3.534 -1.751,1.821 c -4.668,-31.127 -4.942,-63.422 -0.26,-96.167 12.486,-87.369 57.95,-161.873 121.992,-212.743 13.799,5.128 27.084,8.622 39.579,10.406 25.055,3.579 48.207,0.633 70.763,-9.015 19.357,-8.285 36.682,-20.888 51.602,-32.497 l 9.13,1.316 -1.006,7.04 8.203,1.73 c 0.137,0.037 1.295,0.281 3.013,0.509 7.499,1.085 13.492,0.646 17.908,-1.299 l 0.029,0.054 c 1.767,2.363 4.499,3.948 7.677,4.395 5.518,0.79 11.824,-2.032 15.094,-8.6 2.794,-0.352 6.945,-0.522 12.053,0.203 0.715,0.103 1.472,0.227 2.213,0.368 42.302,7.73 107.492,19.973 163.628,31.097 9.317,1.847 17.855,3.547 25.723,5.15 C 38.763,-308.823 83.271,-199.342 66.86,-84.521 62.246,-52.268 53.129,-21.749 40.24,6.456 37.703,5.637 34.811,4.975 31.5,4.503 Z" /></g><g
           transform="translate(621.6123,566.6934)"
           id="g136"><path
             id="path138"
             style="fill:#231f20;fill-opacity:1;fill-rule:nonzero;stroke:none"
             d="m 0,0 c -2.757,-0.845 -5.815,-1.499 -9.213,-1.987 l -1.428,-0.202 2.516,-17.574 -19.762,22.209 c -3.1,3.48 -6.348,6.883 -9.71,10.139 l 2.608,-18.259 -8.853,-1.267 c -7.193,-1.026 -13.136,-0.877 -18.098,0.447 l 0.418,-2.971 -39.769,-5.683 c -0.704,-0.095 -1.424,-0.211 -2.169,-0.306 l -25.176,-3.605 c -26.475,-3.783 -31.607,11.688 -32.584,18.538 l -1.808,12.577 c -2.761,-0.845 -5.827,-1.523 -9.254,-2.012 l -8.858,-1.266 -2.247,15.752 -10.628,-1.515 7.205,-50.385 -8.865,-1.278 c -9.142,-1.291 -16.31,-0.712 -21.943,1.788 -1.258,0.562 -2.429,1.22 -3.514,1.969 -0.927,-1.092 -1.978,-2.119 -3.166,-3.062 -4.921,-3.92 -11.961,-6.489 -21.525,-7.851 l -34.646,-4.954 c -4.858,-0.687 -9.001,-0.745 -12.531,-0.306 l 0.207,-1.453 -29.328,-4.197 c -15.031,-2.144 -23.181,1.904 -27.592,7.09 -13.828,-32.68 -19.221,-69.411 -13.84,-107.081 15.773,-110.367 118.032,-187.049 228.395,-171.273 110.367,15.769 187.053,118.028 171.28,228.383 C 31.325,-56.067 18.541,-25.656 0,0" /></g><g
           transform="translate(357.4419,485.4502)"
           id="g140"><path
             id="path142"
             style="fill:#ffffff;fill-opacity:1;fill-rule:nonzero;stroke:none"
             d="m 0,0 3.845,0.555 4.967,-34.757 14.799,2.119 0.53,-3.721 L 5.5,-38.469 Z" /></g><g
           transform="translate(319.4775,475.1284)"
           id="g144"><path
             id="path146"
             style="fill:#ffffff;fill-opacity:1;fill-rule:nonzero;stroke:none"
             d="M 0,0 C 3.402,4.412 8.07,7.027 14.022,7.888 17.598,8.397 20.95,8.153 24.05,7.147 27.15,6.138 29.807,4.49 32.025,2.172 L 29.319,-0.571 C 27.328,1.37 25.093,2.735 22.577,3.526 20.073,4.3 17.424,4.503 14.614,4.105 11.547,3.667 8.815,2.512 6.398,0.674 4.006,-1.171 2.256,-3.448 1.171,-6.129 c -1.08,-2.687 -1.399,-5.596 -0.952,-8.7 0.663,-4.681 2.823,-8.373 6.494,-11.046 3.675,-2.674 7.942,-3.671 12.843,-2.964 5.384,0.774 9.597,3.514 12.627,8.257 l 3.356,-1.867 c -1.568,-2.715 -3.691,-4.941 -6.369,-6.692 -2.678,-1.73 -5.795,-2.864 -9.32,-3.369 -6.73,-0.956 -12.363,0.513 -16.887,4.445 -3.807,3.315 -6.084,7.648 -6.849,13.004 C -4.693,-9.432 -3.41,-4.408 0,0" /></g><g
           transform="translate(307.8477,376.7266)"
           id="g148"><path
             id="path150"
             style="fill:#ffffff;fill-opacity:1;fill-rule:nonzero;stroke:none"
             d="m 0,0 c -1.821,-2.363 -4.254,-3.763 -7.288,-4.192 -2.334,-0.336 -4.532,-0.018 -6.614,0.963 -2.073,0.969 -4.126,2.806 -6.154,5.509 l 2.993,2.442 c 2.909,-3.919 5.868,-5.654 8.885,-5.223 1.283,0.178 2.45,0.654 3.501,1.415 1.052,0.766 1.792,1.697 2.243,2.79 0.443,1.101 0.601,2.205 0.439,3.344 -0.186,1.283 -0.815,2.504 -1.862,3.613 -1.44,1.531 -3.936,3.27 -7.475,5.239 -3.546,1.946 -5.798,3.423 -6.733,4.375 -1.619,1.635 -2.583,3.497 -2.881,5.608 -0.236,1.664 -0.062,3.249 0.55,4.743 0.605,1.494 1.573,2.744 2.914,3.746 1.354,0.993 2.881,1.618 4.574,1.857 1.812,0.27 3.575,0.05 5.293,-0.616 1.693,-0.671 3.605,-2.077 5.716,-4.229 l -2.798,-2.835 c -1.735,1.709 -3.133,2.798 -4.246,3.264 -1.11,0.464 -2.273,0.597 -3.465,0.431 -1.556,-0.227 -2.756,-0.86 -3.605,-1.953 -0.852,-1.063 -1.175,-2.322 -0.98,-3.684 0.124,-0.836 0.41,-1.63 0.869,-2.367 0.467,-0.728 1.225,-1.486 2.28,-2.284 0.572,-0.423 2.413,-1.453 5.513,-3.142 3.684,-1.978 6.278,-3.828 7.789,-5.583 C 0.973,11.488 1.862,9.659 2.144,7.73 2.542,4.933 1.825,2.358 0,0" /></g><g
           transform="translate(376.2275,384.3369)"
           id="g152"><path
             id="path154"
             style="fill:#ffffff;fill-opacity:1;fill-rule:nonzero;stroke:none"
             d="m 0,0 -18.641,-2.665 -5.5,38.461 3.841,0.551 4.962,-34.749 14.804,2.128 z" /></g><g
           transform="translate(398.6802,422.9717)"
           id="g156"><path
             id="path158"
             style="fill:#ffffff;fill-opacity:1;fill-rule:nonzero;stroke:none"
             d="m 0,0 -18.198,-2.619 1.722,-12.052 18.036,2.586 0.546,-3.774 -18.04,-2.575 2.16,-15.127 18.037,2.575 0.534,-3.754 -21.881,-3.12 -5.501,38.457 22.051,3.157 z" /></g><g
           transform="translate(420.7974,462.5674)"
           id="g160"><path
             id="path162"
             style="fill:#ffffff;fill-opacity:1;fill-rule:nonzero;stroke:none"
             d="m 0,0 2.984,2.425 c 2.905,-3.911 5.869,-5.654 8.891,-5.206 1.291,0.169 2.458,0.637 3.504,1.411 1.047,0.762 1.796,1.697 2.247,2.785 0.457,1.109 0.577,2.219 0.418,3.344 -0.177,1.3 -0.79,2.496 -1.853,3.614 -1.433,1.531 -3.928,3.273 -7.467,5.231 -3.551,1.961 -5.798,3.422 -6.733,4.399 -1.618,1.619 -2.583,3.476 -2.885,5.588 -0.236,1.667 -0.058,3.261 0.559,4.747 0.596,1.494 1.577,2.735 2.909,3.737 1.342,1.001 2.873,1.626 4.586,1.875 1.808,0.26 3.576,0.045 5.273,-0.634 1.709,-0.662 3.617,-2.069 5.732,-4.229 l -2.806,-2.835 c -1.726,1.717 -3.142,2.806 -4.242,3.273 -1.106,0.448 -2.268,0.609 -3.469,0.431 C 6.101,29.729 4.892,29.087 4.048,28.002 3.183,26.922 2.856,25.689 3.054,24.311 3.17,23.483 3.468,22.684 3.923,21.96 c 0.468,-0.745 1.222,-1.502 2.285,-2.293 0.58,-0.414 2.413,-1.453 5.525,-3.133 3.676,-1.978 6.278,-3.845 7.785,-5.583 C 21.029,9.208 21.923,7.371 22.2,5.434 22.61,2.648 21.89,0.079 20.06,-2.285 18.24,-4.652 15.801,-6.042 12.772,-6.473 10.434,-6.816 8.224,-6.49 6.15,-5.521 4.077,-4.549 2.02,-2.711 0,0" /></g><g
           transform="translate(471.542,397.9658)"
           id="g164"><path
             id="path166"
             style="fill:#ffffff;fill-opacity:1;fill-rule:nonzero;stroke:none"
             d="m 0,0 -0.849,-0.128 -29.562,25.503 4.168,-29.137 -3.99,-0.562 -5.493,38.469 0.836,0.116 29.825,-25.834 -4.209,29.492 3.787,0.542 z" /></g><g
           transform="translate(466.7783,463.9824)"
           id="g168"><path
             id="path170"
             style="fill:#ffffff;fill-opacity:1;fill-rule:nonzero;stroke:none"
             d="m 0,0 c -1.821,-2.367 -4.259,-3.753 -7.288,-4.192 -2.334,-0.335 -4.549,-0.004 -6.618,0.972 -2.07,0.969 -4.13,2.806 -6.15,5.501 l 2.976,2.417 c 2.922,-3.895 5.881,-5.637 8.893,-5.207 1.296,0.187 2.456,0.65 3.506,1.432 1.047,0.766 1.792,1.701 2.252,2.782 0.451,1.108 0.583,2.213 0.413,3.348 -0.185,1.287 -0.79,2.491 -1.837,3.609 -1.465,1.531 -3.953,3.286 -7.483,5.231 -3.555,1.961 -5.79,3.422 -6.733,4.391 -1.611,1.618 -2.578,3.497 -2.877,5.6 -0.24,1.655 -0.062,3.257 0.547,4.751 0.604,1.486 1.581,2.727 2.921,3.729 1.35,1.01 2.876,1.626 4.578,1.875 1.808,0.261 3.572,0.058 5.272,-0.625 1.723,-0.662 3.626,-2.078 5.716,-4.234 L -4.71,28.549 c -1.717,1.714 -3.124,2.798 -4.237,3.274 -1.106,0.447 -2.26,0.596 -3.465,0.422 -1.548,-0.211 -2.752,-0.865 -3.609,-1.962 -0.839,-1.072 -1.171,-2.313 -0.964,-3.675 0.116,-0.844 0.414,-1.63 0.857,-2.367 0.467,-0.729 1.229,-1.486 2.268,-2.281 0.588,-0.414 2.425,-1.473 5.525,-3.145 3.691,-1.97 6.291,-3.836 7.793,-5.579 C 0.96,11.498 1.854,9.656 2.136,7.723 2.529,4.942 1.825,2.368 0,0" /></g><g
           transform="translate(483.4619,399.6592)"
           id="g172"><path
             id="path174"
             style="fill:#ffffff;fill-opacity:1;fill-rule:nonzero;stroke:none"
             d="m 0,0 -3.841,-0.538 -5.5,38.461 3.84,0.542 z" /></g><g
           transform="translate(488.3408,499.2612)"
           id="g176"><path
             id="path178"
             style="fill:#ffffff;fill-opacity:1;fill-rule:nonzero;stroke:none"
             d="m 0,0 c 3.39,4.403 8.071,7.027 14.01,7.88 3.596,0.509 6.932,0.265 10.036,-0.733 3.092,-1.018 5.745,-2.669 7.968,-4.966 L 29.307,-0.58 c -1.974,1.95 -4.23,3.307 -6.746,4.098 -2.5,0.79 -5.153,0.985 -7.959,0.587 C 11.531,3.659 8.787,2.516 6.395,0.666 3.998,-1.18 2.248,-3.439 1.18,-6.129 c -1.097,-2.695 -1.411,-5.588 -0.964,-8.692 0.67,-4.689 2.839,-8.381 6.498,-11.046 3.654,-2.682 7.933,-3.659 12.834,-2.972 5.389,0.766 9.609,3.535 12.619,8.257 l 3.368,-1.862 c -1.568,-2.728 -3.7,-4.954 -6.373,-6.697 -2.67,-1.738 -5.795,-2.856 -9.325,-3.373 -6.725,-0.96 -12.35,0.526 -16.877,4.449 -3.804,3.324 -6.084,7.645 -6.858,13 C -4.705,-9.428 -3.41,-4.408 0,0" /></g><g
           transform="translate(471.6045,501.7651)"
           id="g180"><path
             id="path182"
             style="fill:#ffffff;fill-opacity:1;fill-rule:nonzero;stroke:none"
             d="M 0,0 3.837,0.546 9.328,-37.915 5.496,-38.461 Z" /></g><g
           transform="translate(503.8164,437.9917)"
           id="g184"><path
             id="path186"
             style="fill:#ffffff;fill-opacity:1;fill-rule:nonzero;stroke:none"
             d="m 0,0 -8.572,-1.229 4.967,-34.703 -3.928,-0.564 -4.954,34.712 -8.592,-1.229 -0.534,3.754 21.074,3.025 z" /></g><g
           transform="translate(582.6953,413.8506)"
           id="g188"><path
             id="path190"
             style="fill:#ffffff;fill-opacity:1;fill-rule:nonzero;stroke:none"
             d="m 0,0 -0.864,-0.12 -29.547,25.486 4.164,-29.12 -3.982,-0.571 -5.492,38.47 0.827,0.111 29.816,-25.821 -4.226,29.488 3.808,0.538 z" /></g><g
           transform="translate(562.9668,486.6753)"
           id="g192"><path
             id="path194"
             style="fill:#ffffff;fill-opacity:1;fill-rule:nonzero;stroke:none"
             d="m 0,0 c -1.072,-2.719 -2.777,-4.979 -5.096,-6.783 -2.334,-1.817 -4.999,-2.947 -7.995,-3.357 -4.462,-0.646 -8.51,0.393 -12.123,3.083 -3.625,2.695 -5.768,6.328 -6.419,10.902 -0.438,3.083 -0.124,5.98 0.944,8.712 1.081,2.702 2.79,4.995 5.124,6.837 2.338,1.837 4.941,2.98 7.772,3.377 2.914,0.431 5.757,0.062 8.543,-1.039 2.802,-1.117 5.086,-2.806 6.865,-5.074 C -0.608,14.386 0.496,11.742 0.939,8.687 1.378,5.612 1.051,2.728 0,0 m -3.021,22.759 c -4.487,3.319 -9.64,4.565 -15.475,3.733 -3.597,-0.513 -6.8,-1.883 -9.651,-4.11 -2.807,-2.235 -4.905,-5.057 -6.242,-8.46 -1.329,-3.405 -1.73,-6.957 -1.2,-10.669 0.786,-5.534 3.427,-9.991 7.904,-13.331 4.475,-3.336 9.578,-4.61 15.285,-3.783 5.632,0.807 10.124,3.448 13.484,7.922 3.34,4.486 4.64,9.536 3.837,15.172 -0.816,5.691 -3.469,10.194 -7.942,13.526" /></g><g
           transform="translate(393.2295,468.0137)"
           id="g196"><path
             id="path198"
             style="fill:#ffffff;fill-opacity:1;fill-rule:nonzero;stroke:none"
             d="M 0,0 4.594,14.871 13.145,1.887 Z m 3.911,23.111 -0.939,-0.125 -12.673,-41.072 4.287,0.617 4.185,13.5 16.571,2.367 7.864,-11.778 4.143,0.583 z" /></g><g
           transform="translate(325.0112,393.7197)"
           id="g200"><path
             id="path202"
             style="fill:#ffffff;fill-opacity:1;fill-rule:nonzero;stroke:none"
             d="M 0,0 4.606,14.862 13.161,1.875 Z M 3.923,23.106 2.976,22.974 -9.693,-18.09 l 4.288,0.612 4.18,13.509 16.571,2.367 7.86,-11.783 4.155,0.605 z" /></g><g
           transform="translate(410.4922,411.293)"
           id="g204"><path
             id="path206"
             style="fill:#ffffff;fill-opacity:1;fill-rule:nonzero;stroke:none"
             d="m 0,0 -1.875,13.087 6.788,0.968 c 2.64,0.377 4.556,0.422 5.756,0.124 1.201,-0.285 2.227,-0.907 3.08,-1.866 0.852,-0.94 1.365,-2.07 1.547,-3.361 C 15.487,7.615 15.309,6.378 14.779,5.198 14.245,4.035 13.384,3.129 12.226,2.454 11.071,1.783 9.204,1.267 6.643,0.906 Z m 7.47,-2.769 c 3.228,0.489 5.687,1.254 7.413,2.338 1.705,1.073 2.955,2.463 3.7,4.202 0.766,1.725 0.997,3.641 0.69,5.727 -0.355,2.517 -1.381,4.54 -3.058,6.051 -1.668,1.502 -3.687,2.359 -6.042,2.57 C 8.6,18.247 5.687,18.012 1.411,17.387 l -7.657,-1.089 5.497,-38.461 3.84,0.547 -2.553,17.858 2.177,0.319 16.393,-15.885 4.764,0.687 z" /></g><g
           transform="translate(519.8662,421.5732)"
           id="g208"><path
             id="path210"
             style="fill:#ffffff;fill-opacity:1;fill-rule:nonzero;stroke:none"
             d="M 0,0 4.606,14.862 13.165,1.883 Z m 3.923,23.106 -0.936,-0.124 -12.68,-41.081 4.284,0.621 4.2,13.513 16.56,2.371 7.859,-11.791 4.146,0.596 z" /></g><g
           transform="translate(622.4854,430.6328)"
           id="g212"><path
             id="path214"
             style="fill:#ffffff;fill-opacity:1;fill-rule:nonzero;stroke:none"
             d="m 0,0 c -1.067,-2.711 -2.777,-4.971 -5.104,-6.783 -2.341,-1.818 -4.991,-2.926 -7.983,-3.357 -4.474,-0.632 -8.501,0.393 -12.139,3.096 -3.604,2.682 -5.749,6.315 -6.398,10.889 -0.443,3.096 -0.128,5.989 0.943,8.712 1.077,2.719 2.778,5 5.112,6.837 2.346,1.854 4.929,2.988 7.772,3.394 2.905,0.397 5.753,0.062 8.555,-1.047 2.79,-1.126 5.074,-2.806 6.854,-5.074 1.776,-2.26 2.876,-4.934 3.307,-7.988 C 1.365,5.621 1.06,2.719 0,0 m -3.034,22.763 c -4.487,3.332 -9.639,4.573 -15.458,3.737 -3.601,-0.513 -6.812,-1.891 -9.639,-4.118 -2.831,-2.226 -4.917,-5.041 -6.254,-8.459 -1.341,-3.415 -1.746,-6.957 -1.208,-10.661 0.794,-5.538 3.431,-9.991 7.909,-13.331 4.482,-3.344 9.573,-4.603 15.276,-3.791 5.637,0.806 10.136,3.439 13.492,7.942 3.349,4.474 4.623,9.523 3.808,15.151 -0.807,5.683 -3.444,10.194 -7.926,13.53" /></g></g></g></g></svg>